<?xml version="1.0" encoding="UTF-8"?><svg id="Layer_1" xmlns="http://www.w3.org/2000/svg" viewBox="0 0 160 160"><defs><style>.cls-1{isolation:isolate;}.cls-2{fill:#fff;}</style></defs><rect width="160" height="160"/><g class="cls-1"><g class="cls-1"><path class="cls-2" d="M28.36,71.1c-2.53,0-4.84-.46-6.95-1.37s-3.94-2.19-5.49-3.84c-1.55-1.65-2.76-3.59-3.62-5.83-.86-2.24-1.29-4.7-1.29-7.38s.43-5.15,1.29-7.38c.86-2.24,2.07-4.19,3.62-5.85,1.55-1.66,3.38-2.95,5.49-3.86s4.43-1.37,6.95-1.37,4.61.43,6.55,1.29c1.93.86,3.56,1.97,4.89,3.33,1.33,1.36,2.28,2.79,2.85,4.29l-3.6,1.58c-.9-2.08-2.26-3.75-4.1-5.01-1.84-1.26-4.04-1.89-6.59-1.89s-4.96.62-7,1.87c-2.05,1.25-3.64,2.98-4.79,5.2s-1.73,4.82-1.73,7.79.58,5.53,1.73,7.77,2.75,3.97,4.79,5.2c2.05,1.23,4.38,1.85,7,1.85s4.75-.62,6.59-1.87c1.84-1.25,3.2-2.91,4.1-4.99l3.6,1.58c-.58,1.47-1.53,2.88-2.85,4.24-1.33,1.36-2.96,2.47-4.89,3.33-1.93.86-4.12,1.29-6.55,1.29Z"/><path class="cls-2" d="M66.34,71.1c-2.49,0-4.82-.46-6.98-1.37s-4.05-2.19-5.68-3.84-2.91-3.6-3.84-5.85c-.93-2.25-1.39-4.72-1.39-7.41s.46-5.15,1.39-7.41c.93-2.25,2.21-4.2,3.84-5.85s3.52-2.92,5.68-3.81c2.16-.9,4.48-1.34,6.98-1.34s4.82.46,6.98,1.37,4.05,2.19,5.68,3.84c1.63,1.65,2.91,3.59,3.84,5.83.93,2.24,1.39,4.7,1.39,7.38s-.46,5.16-1.39,7.41c-.93,2.25-2.21,4.2-3.84,5.85s-3.52,2.92-5.68,3.84-4.48,1.37-6.98,1.37ZM66.34,67.51c2.08,0,3.97-.38,5.68-1.15,1.71-.77,3.19-1.84,4.44-3.21,1.25-1.37,2.21-2.96,2.9-4.75.69-1.79,1.03-3.71,1.03-5.75s-.34-3.92-1.03-5.71c-.69-1.79-1.65-3.37-2.9-4.75-1.25-1.37-2.73-2.45-4.44-3.21-1.71-.77-3.6-1.15-5.68-1.15s-3.97.38-5.68,1.15c-1.71.77-3.19,1.84-4.44,3.21-1.25,1.38-2.21,2.96-2.9,4.75-.69,1.79-1.03,3.69-1.03,5.71s.34,3.96,1.03,5.75c.69,1.79,1.65,3.37,2.9,4.75,1.25,1.38,2.73,2.45,4.46,3.21,1.73.77,3.61,1.15,5.66,1.15Z"/></g><g class="cls-1"><path class="cls-2" d="M92.23,70.53v-35.72h11.75c3.55,0,6.63.73,9.25,2.18,2.62,1.46,4.65,3.52,6.09,6.19,1.44,2.67,2.16,5.83,2.16,9.47s-.72,6.76-2.16,9.45c-1.44,2.69-3.47,4.76-6.09,6.23-2.62,1.47-5.71,2.21-9.25,2.21h-11.75ZM96.07,66.93h7.91c2.75,0,5.13-.58,7.14-1.75,2.01-1.17,3.57-2.82,4.67-4.96,1.1-2.14,1.65-4.67,1.65-7.58s-.56-5.43-1.68-7.55c-1.12-2.13-2.69-3.77-4.7-4.94s-4.38-1.75-7.1-1.75h-7.91v28.53Z"/></g><g class="cls-1"><path class="cls-2" d="M135.28,70.53v-16.59l-12.51-19.13h4.27l10.93,16.64h-1.53l10.88-16.64h4.27l-12.47,19.13v16.59h-3.84Z"/></g><g class="cls-1"><path class="cls-2" d="M24.02,128.07v-35.72h3.84v16.06h19.18v-16.06h3.84v35.72h-3.84v-16.06h-19.18v16.06h-3.84Z"/><path class="cls-2" d="M55.62,128.07l13.04-35.72h4.12l13.04,35.72h-4.03l-3.07-8.73h-15.97l-3.12,8.73h-4.03ZM64.01,115.75h13.38l-7.24-20.52h1.15l-7.29,20.52Z"/></g><g class="cls-1"><path class="cls-2" d="M90.29,128.07v-35.72h12.27c2.33,0,4.38.46,6.14,1.37s3.12,2.19,4.1,3.84c.98,1.65,1.46,3.56,1.46,5.73,0,2.53-.66,4.68-1.99,6.47-1.33,1.79-3.12,3.05-5.39,3.79l8.34,14.53h-4.51l-8.73-15.39,2.59,1.49h-10.45v13.91h-3.84ZM94.13,110.57h8.63c1.53,0,2.88-.29,4.03-.89,1.15-.59,2.05-1.44,2.69-2.54.64-1.1.96-2.41.96-3.91s-.32-2.8-.96-3.88c-.64-1.09-1.53-1.93-2.69-2.52-1.15-.59-2.49-.89-4.03-.89h-8.63v14.62Z"/></g><g class="cls-1"><path class="cls-2" d="M125.96,128.07v-32.13h-9.88v-3.6h23.5v3.6h-9.78v32.13h-3.84Z"/></g></g></svg>